<svg height="481pt" viewBox="0 0 481 481.92583" width="481pt" xmlns="http://www.w3.org/2000/svg"><path d="m451.183594 203.605469 21.28125 38.320312h-46.5625c10.828125-11.015625 19.414062-24.03125 25.28125-38.320312zm0 0" fill="#009698"/><path d="m464.464844 136.003906c0 3.363282-.082032 6.722656-.320313 10-.878906 19.816406-5.265625 39.320313-12.960937 57.601563-5.867188 14.289062-14.453125 27.304687-25.28125 38.320312-2.898438 2.882813-6 5.558594-9.28125 8h-.078125c-1.601563 1.199219-3.199219 2.320313-4.800781 3.359375l-.320313.082032c-3.839844-22.882813-18-39.839844-34.957031-39.839844-16.960938 0-31.121094 16.957031-34.960938 39.839844l-.320312-.082032c-1.601563-1.066406-3.199219-2.1875-4.800782-3.359375h-.078124c-3.28125-2.441406-6.382813-5.117187-9.28125-8-10.828126-11.015625-19.414063-24.03125-25.28125-38.320312-7.695313-18.28125-12.082032-37.785157-12.960938-57.601563-.238281-3.277344-.316406-6.636718-.316406-10 0-70.71875 88-128 88-128s88 57.28125 88 128zm-48-14.078125v-16c0-11.039062-10-21.039062-20-28.320312-6.304688-4.488281-12.996094-8.394531-20-11.679688 0 0-40 17.921875-40 40v16c0 22.089844 17.90625 40 40 40 22.089844 0 40-17.910156 40-40zm0 0" fill="#898890"/><path d="m416.464844 105.925781v16c0 22.089844-17.910156 40-40 40-22.09375 0-40-17.910156-40-40v-16c0-22.078125 40-40 40-40 7.003906 3.285157 13.695312 7.191407 20 11.679688 10 7.28125 20 17.28125 20 28.320312zm0 0" fill="#d80027"/><path d="m411.421875 253.367188c.679687 4.152343 1.027344 8.351562 1.042969 12.558593 0 28.878907-36 52.398438-36 52.398438s-36-23.519531-36-52.398438c.011718-4.207031.359375-8.40625 1.039062-12.558593 3.839844-22.882813 18-39.839844 34.960938-39.839844 16.957031 0 31.117187 16.957031 34.957031 39.839844zm0 0" fill="#ffde55"/><path d="m327.023438 241.925781h-46.558594l21.277344-38.320312c5.867187 14.289062 14.453124 27.304687 25.28125 38.320312zm0 0" fill="#009698"/><path d="m244.941406 366.003906c10.738282 3.304688 18.4375 12.738282 19.523438 23.921875-1.183594 11.519531-9.265625 21.152344-20.402344 24.320313-.59375 6.917968-2.664062 13.632812-6.078125 19.679687-8.304687 14.785157-23.925781 23.953125-40.882813 24-3.449218.011719-6.886718-.394531-10.238281-1.199219-29.246093 22.570313-69.925781 22.964844-99.601562.960938-1.566407.160156-3.140625.238281-4.71875.238281-23.753907-.199219-43.691407-17.949219-46.640625-41.519531-15.917969-3.761719-27.4375-14.160156-27.4375-26.480469 1.082031-11.183593 8.78125-20.617187 19.519531-23.921875 12.558594 20.640625 56.398437 35.921875 108.480469 35.921875 52.078125 0 95.917968-15.28125 108.476562-35.921875zm0 0" fill="#c6c5ca"/><g fill="#009698"><path d="m248.464844 281.925781v72c-.035156 2.734375-.546875 5.445313-1.523438 8-.550781 1.414063-1.21875 2.777344-2 4.078125-12.558594 20.640625-56.398437 35.921875-108.476562 35.921875-52.082032 0-95.921875-15.28125-108.480469-35.921875-.78125-1.300781-1.449219-2.664062-2-4.078125-.976563-2.554687-1.488281-5.265625-1.519531-8v-72c0 14.320313 14.71875 27.199219 38 36 23.765625 8.332031 48.816406 12.394531 74 12 25.179687.394531 50.230468-3.667969 74-12 23.277344-8.800781 38-21.679687 38-36zm0 0"/><path d="m248.464844 209.925781v72c0 14.320313-14.722656 27.199219-38 36-23.769532 8.332031-48.820313 12.394531-74 12-25.183594.394531-50.234375-3.667969-74-12-23.28125-8.800781-38-21.679687-38-36v-72c0 14.320313 14.71875 27.199219 38 36 23.765625 8.332031 48.816406 12.394531 74 12 25.179687.394531 50.230468-3.667969 74-12 23.277344-8.800781 38-21.679687 38-36zm0 0"/><path d="m248.464844 137.925781v72c0 14.320313-14.722656 27.199219-38 36-23.769532 8.332031-48.820313 12.394531-74 12-25.183594.394531-50.234375-3.667969-74-12-23.28125-8.800781-38-21.679687-38-36v-72c0 26.480469 50.15625 48 112 48 61.839844 0 112-21.519531 112-48zm0 0"/></g><path d="m248.464844 137.925781c0-26.507812-50.144532-48-112-48-61.859375 0-112 21.492188-112 48 0 26.507813 50.140625 48 112 48 61.855468 0 112-21.492187 112-48zm0 0" fill="#00e7f0"/><path d="m376.464844 169.925781c26.496094-.027343 47.972656-21.5 48-48v-16c0-26.511719-40.152344-45.246093-44.730469-47.304687-2.082031-.917969-4.460937-.917969-6.542969 0-4.578125 2.058594-44.726562 20.792968-44.726562 47.304687v16c.023437 26.5 21.5 47.972657 48 48zm-32-64c0-11.328125 18.398437-24.382812 32-31.152343 13.597656 6.769531 32 19.824218 32 31.152343v16c0 17.671875-14.328125 32-32 32-17.675782 0-32-14.328125-32-32zm0 0"/><path d="m419.984375 257.300781c.230469-.160156.453125-.304687.679687-.472656.222657-.167969.503907-.316406.742188-.484375 2.578125-2.011719 5.054688-4.144531 7.417969-6.402344h42.199219c2.832031 0 5.453124-1.5 6.890624-3.941406s1.476563-5.460938.101563-7.9375l-18.625-33.535156c7.472656-18.453125 11.777344-38.035156 12.726563-57.921875.257812-3.472657.347656-7.03125.347656-10.582031 0-74.226563-87.898438-132.28125-91.640625-134.722657-2.648438-1.734375-6.074219-1.734375-8.722657 0-3.742187 2.441407-91.636718 60.496094-91.636718 134.703125 0 3.554688.085937 7.113282.335937 10.402344.945313 19.941406 5.253907 39.582031 12.742188 58.085938l-18.632813 33.546874c-1.378906 2.476563-1.339844 5.5.097656 7.941407 1.4375 2.445312 4.058594 3.945312 6.894532 3.945312h42.199218c2.363282 2.253907 4.839844 4.390625 7.417969 6.398438.226563.171875.46875.328125.71875.464843.234375.175782.472657.320313.703125.496094-.277344 2.816406-.476562 5.679688-.476562 8.625 0 32.878906 38.015625 58.015625 39.628906 59.070313 2.65625 1.730469 6.082031 1.730469 8.738281 0 1.597657-1.054688 39.632813-26.191407 39.632813-59.070313 0-2.929687-.203125-5.785156-.480469-8.609375zm37.445313-23.375h-14.269532c2.785156-3.785156 5.363282-7.722656 7.71875-11.792969zm-155.367188-11.800781c2.351562 4.070312 4.921875 8.011719 7.703125 11.800781h-14.269531zm-5.289062-76.703125c-.238282-3.097656-.308594-6.257813-.308594-9.417969 0-56.796875 62.710937-105.8125 80-118.253906 17.300781 12.425781 80 61.398438 80 118.253906 0 3.160156-.074219 6.320313-.3125 9.601563-1.992188 39.089843-17.210938 74.398437-39.953125 94.128906-7-20.359375-21.960938-34.167969-39.734375-34.167969-17.777344 0-32.738282 13.808594-39.738282 34.167969-22.734374-19.753906-37.960937-55.066406-39.96875-94.3125zm79.691406 162.992187c-8.800782-6.832031-28-23.785156-28-42.488281 0-24.046875 12.796875-44.367187 28-44.367187 15.199218 0 28 20.320312 28 44.367187 0 18.703125-19.160156 35.65625-28 42.488281zm0 0"/><path d="m360.464844 177.925781h32v16h-32zm0 0"/><path d="m400.464844 177.925781h16v16h-16zm0 0"/><path d="m336.464844 177.925781h16v16h-16zm0 0"/><path d="m368.464844 233.925781h16v32h-16zm0 0"/><path d="m368.464844 345.925781h16v32h-16zm0 0"/><path d="m368.464844 385.925781h16v16h-16zm0 0"/><path d="m400.464844 321.925781h16v32h-16zm0 0"/><path d="m400.464844 361.925781h16v16h-16zm0 0"/><path d="m336.464844 321.925781h16v32h-16zm0 0"/><path d="m336.464844 361.925781h16v16h-16zm0 0"/><path d="m312.464844 297.925781h16v32h-16zm0 0"/><path d="m312.464844 337.925781h16v16h-16zm0 0"/><path d="m432.464844 297.925781h16v32h-16zm0 0"/><path d="m432.464844 337.925781h16v16h-16zm0 0"/><path d="m368.464844 425.925781h-118.523438c.609375-2.039062 1.101563-4.113281 1.472656-6.207031 12.125-5.105469 20.289063-16.660156 21.050782-29.792969-.515625-11.121093-6.625-21.230469-16.234375-26.855469.054687-.390624.234375-225.144531.234375-225.144531 0-31.921875-51.59375-56-120-56-68.410156 0-120 24.078125-120 56 0 0 .175781 224.753907.230468 225.144531-9.609374 5.625-15.71875 15.734376-16.230468 26.855469 0 14.398438 11.199218 27.089844 28.46875 32.800781 5.695312 25.082032 27.878906 42.964844 53.601562 43.199219.800782 0 1.601563 0 2.351563-.046875 31.347656 21.613282 72.855469 21.375 103.953125-.601562 2.730468.4375 5.496094.652344 8.261718.648437 18.171876.035157 35.167969-8.957031 45.363282-24h134c4.417968 0 8-3.582031 8-8v-24h-16zm-232-328c61.285156 0 104 21.078125 104 40s-42.714844 40-104 40c-61.289063 0-104-21.078125-104-40s42.710937-40 104-40zm-104 68.664063c20.351562 16.59375 58.398437 27.335937 104 27.335937 45.597656 0 83.644531-10.742187 104-27.335937v43.335937c0 10.089844-12.273438 20.753907-32.851563 28.519531-22.859375 7.96875-46.945312 11.855469-71.148437 11.480469-24.226563.378907-48.328125-3.507812-71.203125-11.488281-20.527344-7.757812-32.796875-18.421875-32.796875-28.511719zm0 71.945312c8.210937 6.355469 17.371094 11.375 27.148437 14.871094 24.683594 8.652344 50.699219 12.890625 76.851563 12.519531 26.132812.367188 52.128906-3.867187 76.796875-12.511719 9.792969-3.5 18.972656-8.519531 27.203125-14.878906v43.390625c0 10.089844-12.273438 20.753907-32.851563 28.519531-22.859375 7.96875-46.945312 11.855469-71.148437 11.480469-24.226563.378907-48.328125-3.507812-71.203125-11.488281-20.527344-7.757812-32.796875-18.421875-32.796875-28.511719zm0 72c8.210937 6.355469 17.371094 11.375 27.148437 14.871094 24.683594 8.652344 50.699219 12.890625 76.851563 12.519531 26.132812.367188 52.128906-3.867187 76.796875-12.511719 9.792969-3.5 18.972656-8.519531 27.203125-14.878906v43.390625c-.027344 1.738281-.355469 3.457031-.96875 5.078125-6.730469 17.160156-47.113282 34.921875-103.03125 34.921875-55.921875 0-96.304688-17.761719-102.960938-34.734375-.65625-1.679687-1.007812-3.464844-1.039062-5.265625zm203.628906 103.007813c-1.511719 20.445312-18.492188 36.289062-38.992188 36.382812-2.804687.011719-5.605468-.316406-8.335937-.976562-2.421875-.566407-4.972656 0-6.925781 1.542969-26.367188 20.257812-62.960938 20.605468-89.703125.851562-1.632813-1.257812-3.683594-1.832031-5.730469-1.601562-1.285156.125-2.574219.1875-3.863281.183593-19.726563-.25-36.246094-15.003906-38.710938-34.574219-.4375-3.292968-2.859375-5.972656-6.089843-6.738281-12.527344-2.953125-21.277344-10.640625-21.277344-18.6875.578125-5.863281 4.082031-11.039062 9.308594-13.75 18.035156 20.324219 60.503906 33.75 110.691406 33.75 50.183594 0 92.527344-13.390625 110.644531-33.777343 5.253906 2.710937 8.773437 7.898437 9.355469 13.777343 0 6.679688-5.875 13.152344-15.339844 16.871094-2.816406 1.113281-4.765625 3.726563-5.03125 6.746094zm0 0"/><path d="m24.464844 1.925781h88v16h-88zm0 0"/><path d="m120.464844 1.925781h88v16h-88zm0 0"/><path d="m216.464844 1.925781h32v16h-32zm0 0"/><path d="m160.464844 49.925781h88v16h-88zm0 0"/><path d="m64.464844 49.925781h88v16h-88zm0 0"/><path d="m24.464844 49.925781h32v16h-32zm0 0"/><path d="m24.464844 25.925781h224v16h-224zm0 0"/><path d="m400.464844 417.925781h80v16h-80zm0 0"/><path d="m400.464844 441.925781h40v16h-40zm0 0"/><path d="m448.464844 441.925781h32v16h-32zm0 0"/><path d="m400.464844 465.925781h80v16h-80zm0 0"/></svg>