<svg height="480pt" viewBox="0 0 480.00223 480" width="480pt" xmlns="http://www.w3.org/2000/svg"><path d="m440.160156 428.242188-23.519531-32.320313-8.640625-11.921875h-336l-8.640625 11.921875-23.519531 32.320313-31.839844 43.757812h184l9.921875-24.800781 6.078125-15.199219h64l6.082031 15.199219 9.917969 24.800781h184zm0 0" fill="#e0e0e2"/><path d="m408 152v232h-336v-53.277344l4-12.082031c2.351562-.71875 4.628906-1.65625 6.800781-2.800781l16.398438 8.160156 8.800781-8.800781-8.160156-16.398438c.984375-1.773437 1.761718-3.652343 2.320312-5.601562h.082032c8.457031 1.871093 17.097656 2.8125 25.757812 2.800781 57.023438-.011719 106.171875-40.132812 117.601562-96h.640626l5.757812-17.359375c2.351562-.71875 4.628906-1.65625 6.800781-2.800781l16.398438 8.160156 8.800781-8.800781-8.160156-16.398438c1.144531-2.171875 2.082031-4.449219 2.800781-6.800781l17.359375-5.757812v-6.242188h104c4.417969 0 8 3.582031 8 8zm0 0" fill="#00e7f0"/><path d="m296 144v6.242188l-17.359375 5.757812c-.71875 2.351562-1.65625 4.628906-2.800781 6.800781l8.160156 16.398438-8.800781 8.800781-16.398438-8.160156c-2.171875 1.144531-4.449219 2.082031-6.800781 2.800781l-5.757812 17.359375h-12.480469l-5.761719-17.359375c-2.347656-.71875-4.625-1.65625-6.800781-2.800781l-16.398438 8.160156-8.800781-8.800781 8.160156-16.398438c-1.144531-2.171875-2.082031-4.449219-2.800781-6.800781l-17.359375-5.757812v-12.480469l17.359375-5.761719c.71875-2.347656 1.65625-4.625 2.800781-6.800781l-8.160156-16.398438 8.800781-8.800781 16.398438 8.160156c1.414062-.753906 2.886719-1.394531 4.402343-1.917968.773438-.363282 1.574219-.660157 2.398438-.882813l5.761719-17.359375h12.480469l5.757812 17.359375c2.351562.71875 4.628906 1.65625 6.800781 2.800781l16.398438-8.160156 8.800781 8.800781-8.160156 16.398438c1.144531 2.175781 2.082031 4.453125 2.800781 6.800781l17.359375 5.761719zm-40 0c0-8.835938-7.164062-16-16-16s-16 7.164062-16 16 7.164062 16 16 16c8.828125-.023438 15.976562-7.171875 16-16zm0 0" fill="#898890"/><path d="m278.082031 447.199219 9.917969 24.800781h-96l9.921875-24.800781 6.078125-15.199219h64zm0 0" fill="#2d2d30"/><path d="m256 144c0 8.835938-7.164062 16-16 16s-16-7.164062-16-16 7.164062-16 16-16 16 7.164062 16 16zm0 0" fill="#d80027"/><path d="m233.761719 200-5.761719-17.359375c-2.347656-.71875-4.625-1.65625-6.800781-2.800781l-16.398438 8.160156-8.800781-8.800781 8.160156-16.398438c-1.144531-2.171875-2.082031-4.449219-2.800781-6.800781l-17.359375-5.757812v-12.480469l17.359375-5.761719c.71875-2.347656 1.65625-4.625 2.800781-6.800781l-8.160156-16.398438 8.800781-8.800781 16.398438 8.160156c1.414062-.753906 2.886719-1.394531 4.402343-1.917968-22.496093-31.542969-58.859374-50.261719-97.601562-50.242188-1.597656 0-3.199219 0-4.800781.160156l4.800781 1.601563v12.480469l-17.359375 5.757812c-.71875 2.351562-1.65625 4.628906-2.800781 6.800781l8.160156 16.398438-8.800781 8.800781-16.398438-8.160156c-2.171875 1.144531-4.449219 2.082031-6.800781 2.800781l-5.757812 17.359375h-12.480469l-5.761719-17.359375c-2.347656-.71875-4.625-1.65625-6.800781-2.800781l-16.398438 8.160156-4.398437-4.398438c-29.949219 39.429688-32.558594 93.21875-6.5625 135.359376l2.960937-2.960938 16.398438 8.160156c2.175781-1.144531 4.453125-2.082031 6.800781-2.800781l5.761719-17.359375h12.480469l1.757812 5.28125 4 12.078125c2.351562.71875 4.628906 1.65625 6.800781 2.800781l16.398438-8.160156 8.800781 8.800781-8.160156 16.398438c1.144531 2.175781 2.082031 4.453125 2.800781 6.800781l17.359375 5.761719v12.480469l-17.359375 5.757812c-.160156.402344-.238281.800781-.398437 1.199219 8.457031 1.871093 17.097656 2.8125 25.757812 2.800781 57.023438-.011719 106.171875-40.132812 117.601562-96zm0 0" fill="#ffde55"/><path d="m128 57.761719v12.480469l-17.359375 5.757812c-.71875 2.351562-1.65625 4.628906-2.800781 6.800781l8.160156 16.398438-8.800781 8.800781-16.398438-8.160156c-2.171875 1.144531-4.449219 2.082031-6.800781 2.800781l-5.757812 17.359375h-12.480469l-5.761719-17.359375c-2.347656-.71875-4.625-1.65625-6.800781-2.800781l-16.398438 8.160156-8.800781-8.800781 8.160156-16.398438c-1.144531-2.171875-2.082031-4.449219-2.800781-6.800781l-17.359375-5.757812v-12.480469l17.359375-5.761719c.71875-2.347656 1.65625-4.625 2.800781-6.800781l-8.160156-16.398438 8.800781-8.800781 16.398438 8.160156c2.175781-1.144531 4.453125-2.082031 6.800781-2.800781l5.761719-17.359375h12.480469l5.757812 17.359375c2.351562.71875 4.628906 1.65625 6.800781 2.800781l16.398438-8.160156 8.800781 8.800781-8.160156 16.398438c1.144531 2.175781 2.082031 4.453125 2.800781 6.800781l12.480469 4.160156h.078125zm-40 6.238281c0-8.835938-7.164062-16-16-16s-16 7.164062-16 16 7.164062 16 16 16c8.828125-.023438 15.976562-7.171875 16-16zm0 0" fill="#898890"/><path d="m120 273.761719v12.480469l-17.359375 5.757812c-.160156.402344-.238281.800781-.398437 1.199219h-.082032c-.558594 1.949219-1.335937 3.828125-2.320312 5.601562l8.160156 16.398438-8.800781 8.800781-16.398438-8.160156c-2.171875 1.144531-4.449219 2.082031-6.800781 2.800781l-4 12.082031-1.757812 5.277344h-12.480469l-5.761719-17.359375c-2.347656-.71875-4.625-1.65625-6.800781-2.800781l-16.398438 8.160156-8.800781-8.800781 8.160156-16.398438c-1.144531-2.171875-2.082031-4.449219-2.800781-6.800781l-17.359375-5.757812v-12.480469l17.359375-5.761719c.71875-2.347656 1.65625-4.625 2.800781-6.800781l-8.160156-16.398438 8.800781-8.800781 16.398438 8.160156c2.175781-1.144531 4.453125-2.082031 6.800781-2.800781l5.761719-17.359375h12.480469l1.757812 5.28125 4 12.078125c2.351562.71875 4.628906 1.65625 6.800781 2.800781l16.398438-8.160156 8.800781 8.800781-8.160156 16.398438c1.144531 2.175781 2.082031 4.453125 2.800781 6.800781zm-40 6.238281c0-8.835938-7.164062-16-16-16s-16 7.164062-16 16 7.164062 16 16 16c8.828125-.023438 15.976562-7.171875 16-16zm0 0" fill="#898890"/><path d="m88 64c0 8.835938-7.164062 16-16 16s-16-7.164062-16-16 7.164062-16 16-16 16 7.164062 16 16zm0 0" fill="#d80027"/><path d="m80 280c0 8.835938-7.164062 16-16 16s-16-7.164062-16-16 7.164062-16 16-16 16 7.164062 16 16zm0 0" fill="#d80027"/><path d="m376 192h16v-24c0-4.417969-3.582031-8-8-8h-24v16h16zm0 0"/><path d="m376 200h16v16h-16zm0 0"/><path d="m336 160h16v16h-16zm0 0"/><path d="m400 0h80v16h-80zm0 0"/><path d="m400 24h40v16h-40zm0 0"/><path d="m448 24h32v16h-32zm0 0"/><path d="m400 48h80v16h-80zm0 0"/><path d="m448 112v-40h-16v32h-120v16h128c4.417969 0 8-3.582031 8-8zm0 0"/><path d="m72 88c13.257812 0 24-10.742188 24-24 0-13.253906-10.742188-24-24-24-13.253906 0-24 10.746094-24 24 0 13.257812 10.746094 24 24 24zm0-32c4.417969 0 8 3.582031 8 8s-3.582031 8-8 8-8-3.582031-8-8 3.582031-8 8-8zm0 0"/><path d="m13.472656 77.808594 13.726563 4.59375.128906.292968-6.453125 12.9375c-1.535156 3.078126-.929688 6.792969 1.503906 9.222657l8.796875 8.800781c2.433594 2.433594 6.148438 3.039062 9.226563 1.503906l12.933594-6.453125.265624.09375 4.558594 13.703125c1.089844 3.269532 4.148438 5.472656 7.59375 5.472656h12.445313c3.445312 0 6.503906-2.203124 7.59375-5.472656l4.609375-13.703125.304687-.128906 12.933594 6.457031c3.078125 1.535156 6.792969.929688 9.222656-1.503906l8.800781-8.800781c2.433594-2.429688 3.039063-6.144531 1.503907-9.222657l-6.453125-12.9375.085937-.261718 13.703125-4.578125c3.285156-1.082031 5.5-4.148438 5.496094-7.605469v-12.433594c0-3.445312-2.203125-6.503906-5.472656-7.59375l-13.726563-4.589844-.128906-.296874 6.457031-12.9375c1.535156-3.078126.929688-6.789063-1.503906-9.222657l-8.800781-8.800781c-2.429688-2.429688-6.144531-3.035156-9.222657-1.503906l-12.9375 6.457031-.261718-.097656-4.5625-13.703125c-1.082032-3.285156-4.15625-5.5039065-7.613282-5.496094h-12.449218c-3.445313 0-6.503906 2.203125-7.59375 5.472656l-4.582032 13.726563-.304687.128906-12.910156-6.480469c-3.070313-1.511718-6.761719-.90625-9.1875 1.503906l-8.796875 8.800782c-2.433594 2.433594-3.039063 6.144531-1.503906 9.226562l6.453124 12.933594-.152343.289062-13.703125 4.574219c-3.28125 1.082031-5.5 4.152344-5.496094 7.609375v12.433594c0 3.441406 2.203125 6.5 5.472656 7.589844zm10.527344-14.261719 11.890625-4c2.421875-.804687 4.320313-2.714844 5.101563-5.144531.597656-1.894532 1.367187-3.734375 2.296874-5.488282 1.183594-2.277343 1.203126-4.980468.054688-7.273437l-5.605469-11.238281.664063-.664063 11.246094 5.597657c2.289062 1.144531 4.984374 1.121093 7.257812-.054688 1.761719-.921875 3.601562-1.691406 5.496094-2.296875 2.441406-.773437 4.363281-2.667969 5.175781-5.09375l3.96875-11.890625h.910156l3.960938 11.890625c.808593 2.425781 2.734375 4.320313 5.175781 5.09375 1.898438.605469 3.746094 1.378906 5.511719 2.304687 2.269531 1.175782 4.96875 1.199219 7.253906.054688l11.25-5.597656.65625.664062-5.601563 11.238282c-1.148437 2.292968-1.125 4.996093.058594 7.273437.929688 1.753906 1.695313 3.59375 2.292969 5.488281.777344 2.441406 2.671875 4.367188 5.105469 5.175782l11.886718 4v.910156l-11.886718 4c-2.433594.808594-4.328125 2.734375-5.105469 5.175781-.597656 1.894531-1.363281 3.734375-2.292969 5.488281-1.183594 2.277344-1.207031 4.980469-.058594 7.273438l5.601563 11.199218-.65625.664063-11.25-5.601563c-2.285156-1.140624-4.984375-1.121093-7.253906.058594-1.765625.925782-3.613281 1.695313-5.511719 2.304688-2.441406.769531-4.367188 2.664062-5.175781 5.09375l-3.960938 11.847656h-.910156l-3.960937-11.886719c-.8125-2.429687-2.734376-4.324219-5.175782-5.097656-1.902344-.605469-3.746094-1.375-5.511718-2.300781-2.273438-1.179688-4.96875-1.199219-7.257813-.058594l-11.246094 5.601562-.65625-.65625 5.597657-11.199218c1.148437-2.292969 1.128906-5-.054688-7.273438-.929688-1.753906-1.699219-3.59375-2.296875-5.488281-.773437-2.441406-2.671875-4.367187-5.101563-5.175781l-11.882812-4.007813zm0 0"/><path d="m240 168c13.257812 0 24-10.742188 24-24 0-13.253906-10.742188-24-24-24-13.253906 0-24 10.746094-24 24 0 13.257812 10.746094 24 24 24zm0-32c4.417969 0 8 3.582031 8 8s-3.582031 8-8 8-8-3.582031-8-8 3.582031-8 8-8zm0 0"/><path d="m88 280c0-13.253906-10.742188-24-24-24-13.253906 0-24 10.746094-24 24 0 13.257812 10.746094 24 24 24 13.257812 0 24-10.742188 24-24zm-24 8c-4.417969 0-8-3.582031-8-8s3.582031-8 8-8 8 3.582031 8 8-3.582031 8-8 8zm0 0"/><path d="m416 381.402344v-229.402344c0-8.835938-7.164062-16-16-16h-96.277344c-.609375-2.703125-2.574218-4.902344-5.195312-5.808594l-13.726563-4.589844-.128906-.296874 6.457031-12.9375c1.535156-3.078126.929688-6.789063-1.503906-9.222657l-8.800781-8.800781c-2.429688-2.429688-6.144531-3.035156-9.222657-1.503906l-12.9375 6.457031-.261718-.097656-4.5625-13.703125c-1.082032-3.285156-4.15625-5.503906-7.613282-5.496094h-12.449218c-3.445313 0-6.503906 2.203125-7.59375 5.472656l-2.046875 6.160156c-17.917969-20.523437-41.933594-34.773437-68.535157-40.671874-4.308593-.855469-8.53125 1.816406-9.601562 6.082031-.445312 2.078125-.050781 4.25 1.105469 6.03125 1.15625 1.785156 2.976562 3.039062 5.054687 3.480469 18.703125 4.195312 36.015625 13.117187 50.28125 25.917968-1.230468.347656-2.355468.996094-3.28125 1.878906l-8.800781 8.800782c-2.429687 2.433594-3.035156 6.144531-1.503906 9.226562l6.457031 12.933594-.113281.289062-13.703125 4.574219c-2.617188.90625-4.582032 3.105469-5.191406 5.808594h-96.304688c-8.835938 0-16 7.164063-16 16v64h-6.222656c-3.445313 0-6.503906 2.203125-7.59375 5.472656l-4.582032 13.742188-.304687.128906-12.9375-6.453125c-1.105469-.523438-2.320313-.777344-3.542969-.746094-11.648437-22.191406-15.511718-47.648437-10.976562-72.296875.367187-2.101562-.125-4.261719-1.359375-6-1.179688-1.753906-3.03125-2.941406-5.121094-3.277343-4.324219-.78125-8.46875 2.078124-9.277344 6.398437-1.378906 7.605469-2.0742185 15.320313-2.082031 23.046875.00390625 21.546875 5.472656 42.742188 15.898438 61.601562l-1.546876 1.542969c-2.429687 2.433594-3.035156 6.144531-1.503906 9.222657l6.457032 12.9375-.105469.296874-13.703125 4.574219c-3.28125 1.082031-5.50000025 4.152344-5.496094 7.609375v12.433594c0 3.441406 2.203125 6.5 5.472656 7.589844l13.726563 4.59375.128906.292968-6.453125 12.9375c-1.535156 3.078126-.929688 6.792969 1.503906 9.222657l8.796875 8.800781c2.433594 2.433594 6.148438 3.039062 9.226563 1.503906l12.933594-6.453125.265624.09375 4.558594 13.703125c1.082032 3.289063 4.15625 5.503906 7.617188 5.496094h6.222656v37.402344l-62.472656 85.894531c-1.765625 2.433594-2.019532 5.65625-.65625 8.335937 1.367187 2.679688 4.121094 4.367188 7.128906 4.367188h464c3.011719 0 5.765625-1.6875 7.128906-4.367188 1.367188-2.679687 1.113282-5.902343-.65625-8.335937zm-224-237.855469 11.890625-4c2.429687-.808594 4.328125-2.734375 5.101563-5.179687.597656-1.894532 1.367187-3.730469 2.296874-5.484376 1.183594-2.277343 1.203126-4.980468.054688-7.273437l-5.597656-11.199219.65625-.664062 11.246094 5.597656c2.289062 1.144531 4.984374 1.121094 7.257812-.054688 1.765625-.925781 3.609375-1.699218 5.511719-2.304687 2.441406-.773437 4.363281-2.667969 5.175781-5.09375l4-11.890625h.910156l3.960938 11.890625c.8125 2.425781 2.734375 4.320313 5.175781 5.09375 1.902344.605469 3.746094 1.378906 5.511719 2.304687 2.269531 1.175782 4.96875 1.199219 7.257812.054688l11.246094-5.597656.65625.664062-5.597656 11.199219c-1.148438 2.292969-1.128906 4.996094.054687 7.273437.929688 1.753907 1.699219 3.589844 2.296875 5.484376.773438 2.445312 2.671875 4.371093 5.101563 5.179687l11.890625 4v.910156l-11.890625 4c-2.429688.808594-4.328125 2.734375-5.101563 5.175781-.597656 1.894532-1.367187 3.730469-2.296875 5.488282-1.183593 2.273437-1.203125 4.980468-.054687 7.273437l5.597656 11.199219-.65625.664062-11.246094-5.601562c-2.289062-1.140625-4.988281-1.121094-7.257812.058594-1.765625.925781-3.609375 1.695312-5.511719 2.300781-2.441406.773437-4.363281 2.667969-5.175781 5.097656l-4.007813 11.886719h-.910156l-4-11.886719c-.8125-2.429687-2.734375-4.324219-5.179687-5.097656-1.898438-.605469-3.742188-1.375-5.511719-2.300781-2.269531-1.179688-4.964844-1.199219-7.253907-.058594l-11.25 5.601562-.65625-.664062 5.601563-11.199219c1.148437-2.292969 1.128906-5-.054687-7.273437-.929688-1.757813-1.699219-3.59375-2.296876-5.488282-.773437-2.441406-2.671874-4.367187-5.105468-5.175781l-11.839844-4zm-15.71875 8.453125c.605469 2.707031 2.570312 4.902344 5.191406 5.808594l13.726563 4.59375.128906.292968-6.453125 12.9375c-1.535156 3.078126-.929688 6.792969 1.503906 9.222657l8.796875 8.800781c2.433594 2.433594 6.148438 3.039062 9.226563 1.503906l12.933594-6.453125.304687.125 4.558594 13.707031c1.089843 3.265626 4.148437 5.472657 7.59375 5.46875h1.601562c-6.957031 23.265626-21.273437 43.648438-40.800781 58.082032-1.710938 1.261718-2.847656 3.148437-3.164062 5.25-.316407 2.101562.21875 4.242187 1.484374 5.949218 1.542969 2.019532 3.9375 3.203126 6.480469 3.199219 1.695313.027344 3.355469-.507812 4.71875-1.519531 24.5-18.148438 41.710938-44.449219 48.527344-74.167969.507813-.679687.90625-1.4375 1.175781-2.238281l4.585938-13.761719.304687-.128906 12.933594 6.457031c3.074219 1.550782 6.800781.945313 9.222656-1.503906l8.800781-8.800781c2.433594-2.429688 3.039063-6.144531 1.503907-9.222657l-6.453125-12.9375.085937-.261718 13.703125-4.578125c2.632813-.902344 4.609375-3.105469 5.21875-5.824219h96.277344v224h-320v-44l2.402344-7.136719.304687-.125 12.933594 6.453125c3.078125 1.550782 6.800781.945313 9.222656-1.503906l8.800781-8.796875c2.433594-2.433594 3.039063-6.148437 1.503907-9.226563l-6.453125-12.933593.085937-.328125 13.703125-4.578125c3.285156-1.082031 5.5-4.148438 5.496094-7.605469v-12.433594c0-3.445312-2.203125-6.503906-5.472656-7.59375l-13.726563-4.589844-.128906-.296874 6.457031-12.9375c1.535156-3.078126.929688-6.789063-1.503906-9.222657l-8.800781-8.800781c-2.429688-2.429688-6.144531-3.035156-9.222657-1.503906l-12.9375 6.457031-.261718-.097656-2.402344-7.132813v-76.066406zm-116.695312 164.113281c-.8125-2.429687-2.734376-4.324219-5.175782-5.097656-1.902344-.605469-3.746094-1.375-5.511718-2.300781-2.273438-1.179688-4.96875-1.199219-7.257813-.058594l-11.246094 5.601562-.65625-.65625 5.597657-11.242187c1.148437-2.292969 1.128906-4.996094-.054688-7.269531-.929688-1.757813-1.699219-3.59375-2.296875-5.488282-.773437-2.445312-2.671875-4.367187-5.101563-5.175781l-11.882812-3.96875v-.910156l11.890625-4c2.429687-.808594 4.328125-2.734375 5.101563-5.179687.597656-1.894532 1.367187-3.730469 2.296874-5.484376 1.183594-2.277343 1.203126-4.980468.054688-7.273437l-5.597656-11.242187.65625-.660157 11.246094 5.597657c2.289062 1.144531 4.984374 1.121093 7.257812-.054688 1.765625-.929688 3.609375-1.699219 5.511719-2.304688 2.441406-.773437 4.363281-2.667968 5.175781-5.097656l3.953125-11.847656h.910156l3.960938 11.890625c.808593 2.425781 2.734375 4.320313 5.175781 5.09375 1.898438.605469 3.746094 1.378906 5.511719 2.304687 2.269531 1.175782 4.96875 1.199219 7.253906.054688l11.25-5.597656.65625.664062-5.601563 11.238282c-1.148437 2.292968-1.125 4.996093.058594 7.273437.929688 1.753906 1.695313 3.59375 2.292969 5.488281.777344 2.441406 2.671875 4.367188 5.105469 5.175782l11.886718 4v.910156l-11.886718 4c-2.433594.808594-4.328125 2.734375-5.105469 5.175781-.597656 1.894531-1.363281 3.734375-2.292969 5.488281-1.183594 2.277344-1.207031 4.980469-.058594 7.273438l5.601563 11.238281-.65625.664063-11.25-5.597657c-2.285156-1.144531-4.984375-1.121093-7.253906.054688-1.765625.925781-3.613281 1.699219-5.511719 2.304687-2.441406.773438-4.367188 2.667969-5.175781 5.09375l-3.960938 11.808594h-.910156zm144.230468 147.886719 9.601563-24h53.167969l9.597656 24zm89.601563 0-13.984375-34.96875c-1.214844-3.039062-4.160156-5.03125-7.433594-5.03125h-64c-3.273438 0-6.214844 1.992188-7.429688 5.03125l-13.984374 34.96875h-162.871094l52.359375-72h327.855469l52.359374 72zm0 0"/><path d="m80 400h32v16h-32zm0 0"/><path d="m128 400h32v16h-32zm0 0"/><path d="m176 400h32v16h-32zm0 0"/><path d="m56 432h32v16h-32zm0 0"/><path d="m104 432h32v16h-32zm0 0"/><path d="m152 432h32v16h-32zm0 0"/><path d="m296 432h32v16h-32zm0 0"/><path d="m344 432h32v16h-32zm0 0"/><path d="m392 432h32v16h-32zm0 0"/><path d="m224 400h32v16h-32zm0 0"/><path d="m272 400h32v16h-32zm0 0"/><path d="m320 400h32v16h-32zm0 0"/><path d="m368 400h32v16h-32zm0 0"/><path d="m376 352h16v16h-16zm0 0"/><path d="m352 352h16v16h-16zm0 0"/><path d="m376 328h16v16h-16zm0 0"/><path d="m12.640625 120.554688c-.96875 1.914062-1.113281 4.140624-.398437 6.167968.714843 1.988282 2.179687 3.625 4.078124 4.558594 1.082032.5 2.25.773438 3.441407.800781 3.105469.007813 5.9375-1.769531 7.28125-4.570312 1.886719-3.976563.207031-8.730469-3.761719-10.636719-3.957031-1.863281-8.679688-.230469-10.640625 3.679688zm0 0"/><path d="m200 296h80v16h-80zm0 0"/><path d="m200 320h40v16h-40zm0 0"/><path d="m248 320h32v16h-32zm0 0"/><path d="m200 344h80v16h-80zm0 0"/><path d="m280 208h80v16h-80zm0 0"/><path d="m280 232h40v16h-40zm0 0"/><path d="m328 232h32v16h-32zm0 0"/><path d="m280 256h80v16h-80zm0 0"/><path d="m120 168h56v16h-56zm0 0"/><path d="m120 192h24v16h-24zm0 0"/><path d="m152 192h24v16h-24zm0 0"/><path d="m120 216h56v16h-56zm0 0"/><path d="m176 288c0 4.417969-3.582031 8-8 8s-8-3.582031-8-8 3.582031-8 8-8 8 3.582031 8 8zm0 0"/></svg>